# Blender v2.76 (sub 0) OBJ File: 'Project.blend'
# www.blender.org
mtllib Wood.mtl
o Wood_Cylinder
v -2.836139 0.883363 -3.303473
v -2.863137 0.858129 3.036549
v -2.517031 0.823711 -3.303473
v -2.561038 0.801657 3.036549
v -2.241021 0.652813 -3.303473
v -2.299740 0.639868 3.036549
v -2.045384 0.393749 -3.303473
v -2.114532 0.394613 3.036549
v -1.956544 0.081506 -3.303473
v -2.030427 0.099014 3.036549
v -1.986497 -0.241744 -3.303473
v -2.058784 -0.207006 3.036549
v -2.131200 -0.532346 -3.303473
v -2.195773 -0.482118 3.036549
v -2.371108 -0.751051 -3.303473
v -2.422894 -0.689165 3.036549
v -2.673821 -0.868323 -3.303473
v -2.709471 -0.800186 3.036549
v -2.998456 -0.868323 -3.303473
v -3.016802 -0.800186 3.036549
v -3.301169 -0.751051 -3.303473
v -3.303380 -0.689165 3.036549
v -3.541078 -0.532346 -3.303473
v -3.530500 -0.482118 3.036549
v -3.685780 -0.241744 -3.303473
v -3.667489 -0.207006 3.036549
v -3.715734 0.081507 -3.303473
v -3.695846 0.099014 3.036549
v -3.626893 0.393749 -3.303473
v -3.611741 0.394613 3.036549
v -3.431256 0.652813 -3.303473
v -3.426532 0.639869 3.036549
v -3.155246 0.823712 -3.303473
v -3.165234 0.801657 3.036549
v -2.836139 0.892368 -2.244794
v -2.836139 1.000000 -1.186117
v -2.836139 1.054926 -0.125527
v -2.836139 0.996389 0.929327
v -2.836139 0.960423 1.989917
v -2.489194 1.012643 1.989917
v -2.476202 0.929105 0.929327
v -2.438549 1.023236 -0.125527
v -2.474897 0.932472 -1.186117
v -2.513778 0.832108 -2.244795
v -2.189106 0.709761 1.989917
v -2.164876 0.736340 0.929327
v -2.164876 0.736340 -0.125527
v -2.162443 0.739009 -1.186117
v -2.234954 0.659468 -2.244795
v -1.976404 0.428097 1.989917
v -1.944208 0.444129 0.929327
v -1.944208 0.444129 -0.125527
v -1.842881 0.445738 -1.186117
v -2.037324 0.397762 -2.244795
v -1.879813 0.088617 1.989917
v -1.844001 0.091935 0.929327
v -1.844001 0.091935 -0.125527
v -1.840405 0.092268 -1.186117
v -1.947578 0.082337 -2.244795
v -1.912380 -0.262832 1.989917
v -1.877787 -0.272675 0.929327
v -1.820386 -0.365130 -0.177381
v -1.874313 -0.273663 -1.186117
v -1.977836 -0.244208 -2.244795
v -2.069705 -0.578784 1.989917
v -2.041004 -0.600458 0.929327
v -2.041004 -0.600458 -0.125527
v -1.962816 -0.602635 -1.186117
v -2.124014 -0.537772 -2.244795
v -2.067090 -0.850730 1.972239
v -2.311608 -0.847147 0.929327
v -2.311608 -0.847147 -0.125527
v -2.309707 -0.850217 -1.186117
v -2.366368 -0.758707 -2.244795
v -2.659662 -0.944070 1.989917
v -2.653053 -0.979423 0.929327
v -2.653053 -0.979423 -0.125527
v -2.652389 -0.982973 -1.186117
v -2.672167 -0.877174 -2.244795
v -3.219866 -0.995312 1.967618
v -2.991801 -1.174913 0.817865
v -3.019225 -0.979423 -0.125527
v -3.019888 -0.982973 -1.186117
v -2.961446 -1.072664 -2.357685
v -3.341736 -0.816568 1.989917
v -3.379496 -0.960104 0.929327
v -3.360670 -0.847147 -0.125527
v -3.362571 -0.850217 -1.186117
v -3.327965 -0.823870 -2.309044
v -3.602572 -0.578784 1.989917
v -3.631274 -0.600458 0.929327
v -3.631274 -0.600458 -0.125527
v -3.786373 -0.621295 -1.296928
v -3.548264 -0.537772 -2.244795
v -3.759898 -0.262832 1.989917
v -3.794491 -0.272674 0.929327
v -3.794491 -0.272675 -0.125527
v -3.797964 -0.273663 -1.186117
v -3.694441 -0.244208 -2.244795
v -3.792464 0.088617 1.989917
v -3.828277 0.091936 0.929327
v -3.828277 0.091935 -0.125527
v -3.831873 0.092269 -1.186117
v -3.803623 0.082337 -2.244795
v -3.695874 0.428098 1.989917
v -3.893678 0.407360 0.892608
v -3.728069 0.444129 -0.125527
v -3.731302 0.445739 -1.186117
v -3.634953 0.397763 -2.244795
v -3.483171 0.709762 1.989917
v -3.507401 0.736341 0.929327
v -3.507401 0.736340 -0.125527
v -3.509834 0.739009 -1.186117
v -3.437323 0.659468 -2.244795
v -3.183083 0.895568 1.989917
v -3.196075 0.929105 0.929327
v -3.196075 0.929105 -0.125527
v -3.197380 0.932473 -1.186117
v -3.158498 0.832108 -2.244795
v -2.587864 0.632510 3.065707
v -2.832900 0.678315 3.065707
v -2.375922 0.501281 3.065707
v -2.225697 0.302351 3.065707
v -2.157479 0.062587 3.065707
v -2.180479 -0.185629 3.065707
v -2.291593 -0.408776 3.065707
v -2.475813 -0.576715 3.065707
v -2.708260 -0.666765 3.065707
v -2.957540 -0.666765 3.065707
v -3.189987 -0.576715 3.065707
v -3.374207 -0.408776 3.065707
v -3.485321 -0.185629 3.065707
v -3.508322 0.062588 3.065707
v -3.440103 0.302352 3.065707
v -3.289878 0.501282 3.065707
v -3.077935 0.632511 3.065707
v -2.881658 0.703006 -3.338801
v -2.614742 0.653111 -3.338801
v -2.383873 0.510163 -3.338801
v -2.220234 0.293469 -3.338801
v -2.145923 0.032295 -3.338801
v -2.170978 -0.238087 -3.338801
v -2.292014 -0.481160 -3.338801
v -2.492685 -0.664095 -3.338801
v -2.745888 -0.762187 -3.338801
v -3.017428 -0.762187 -3.338801
v -3.270632 -0.664095 -3.338801
v -3.471303 -0.481160 -3.338801
v -3.592339 -0.238087 -3.338801
v -3.617393 0.032295 -3.338801
v -3.543083 0.293470 -3.338801
v -3.379443 0.510163 -3.338801
v -3.148575 0.653111 -3.338801
v -2.836139 0.980212 2.519256
v -2.482046 0.972558 2.519256
v -2.175775 0.724385 2.519256
v -1.958689 0.436918 2.519256
v -1.860109 0.090443 2.519256
v -1.893346 -0.268247 2.519256
v -2.053913 -0.590709 2.519256
v -2.188398 -0.850473 2.510417
v -2.656025 -0.963521 2.519256
v -3.119877 -0.989143 2.508106
v -3.352153 -0.833392 2.519256
v -3.618364 -0.590709 2.519256
v -3.778931 -0.268247 2.519256
v -3.812169 0.090443 2.519256
v -3.713588 0.436918 2.519256
v -3.496502 0.724386 2.519256
v -3.190231 0.914020 2.519256
v -3.014185 0.829893 3.036549
vt 0.072595 0.021638
vt 0.091181 0.041956
vt 0.050864 0.099590
vt 0.018470 0.077337
vt 0.029246 0.172312
vt 0.000000 0.174429
vt 0.029246 0.250300
vt 0.000000 0.265841
vt 0.050864 0.323023
vt 0.025339 0.351080
vt 0.091181 0.380658
vt 0.072595 0.418635
vt 0.144751 0.415421
vt 0.135385 0.459382
vt 0.204340 0.422618
vt 0.186764 0.491425
vt 0.261900 0.401277
vt 0.272696 0.442802
vt 0.309656 0.354279
vt 0.347780 0.377064
vt 0.341160 0.287972
vt 0.365599 0.309997
vt 0.128838 0.531630
vt 0.133404 0.492282
vt 0.191627 0.491425
vt 0.197081 0.530626
vt 0.240947 0.492282
vt 0.254890 0.531630
vt 0.365599 0.130287
vt 0.341160 0.134651
vt 0.309656 0.068343
vt 0.328673 0.052566
vt 0.369121 0.044763
vt 0.389633 0.004199
vt 0.432558 0.001466
vt 0.419434 0.041559
vt 0.487647 0.000000
vt 0.484005 0.039841
vt 0.547461 0.000000
vt 0.554114 0.039841
vt 0.487466 0.505707
vt 0.487197 0.421115
vt 0.551023 0.421116
vt 0.550648 0.505707
vt 0.482801 0.335244
vt 0.554326 0.335244
vt 0.483060 0.250664
vt 0.554326 0.250664
vt 0.483167 0.166495
vt 0.554433 0.166495
vt 0.484779 0.082335
vt 0.553472 0.082335
vt 0.611270 0.422679
vt 0.610287 0.507255
vt 0.621840 0.336997
vt 0.627286 0.251754
vt 0.621703 0.168242
vt 0.618314 0.084018
vt 0.429275 0.507255
vt 0.428412 0.422679
vt 0.416927 0.336997
vt 0.417423 0.252411
vt 0.386010 0.170433
vt 0.421511 0.084018
vt 0.383934 0.510142
vt 0.369293 0.425048
vt 0.365599 0.340266
vt 0.366281 0.255667
vt 0.366387 0.171498
vt 0.372215 0.087157
vt 0.250201 0.997407
vt 0.249867 0.912842
vt 0.299318 0.914506
vt 0.285858 1.000000
vt 0.263125 0.826881
vt 0.303490 0.829817
vt 0.261051 0.742343
vt 0.301270 0.745268
vt 0.259483 0.658210
vt 0.299702 0.661135
vt 0.252950 0.574129
vt 0.291717 0.576948
vt 0.198104 0.996502
vt 0.197240 0.911928
vt 0.228453 0.832681
vt 0.202288 0.741322
vt 0.200720 0.657189
vt 0.196308 0.573145
vt 0.136603 0.997407
vt 0.132800 0.917103
vt 0.134528 0.826882
vt 0.132918 0.742343
vt 0.123875 0.656949
vt 0.129443 0.574129
vt 0.074004 1.000000
vt 0.046982 0.923146
vt 0.063664 0.829817
vt 0.062310 0.745268
vt 0.037760 0.668570
vt 0.091839 0.575749
vt 0.886305 0.467479
vt 0.886720 0.382926
vt 0.954671 0.391702
vt 0.936999 0.470247
vt 0.895582 0.296884
vt 0.952970 0.300018
vt 0.001128 0.834267
vt 0.000000 0.749701
vt 0.894916 0.212370
vt 0.894562 0.128258
vt 0.970237 0.137342
vt 0.952097 0.215492
vt 0.891125 0.044233
vt 0.984574 0.050082
vt 0.825392 0.466512
vt 0.825187 0.381950
vt 0.826627 0.295790
vt 0.826210 0.211280
vt 0.825856 0.127169
vt 0.787739 0.041875
vt 0.762489 0.467479
vt 0.761642 0.382926
vt 0.743659 0.296242
vt 0.755259 0.212370
vt 0.754904 0.128259
vt 0.756508 0.044233
vt 0.706090 0.470247
vt 0.704668 0.385723
vt 0.691572 0.300018
vt 0.693452 0.217864
vt 0.691289 0.131381
vt 0.695189 0.047243
vt 0.798777 0.511593
vt 0.798030 0.596206
vt 0.738718 0.594740
vt 0.740064 0.510142
vt 0.793565 0.681569
vt 0.727100 0.679927
vt 0.793293 0.766239
vt 0.706656 0.760527
vt 0.792886 0.850478
vt 0.726661 0.848841
vt 0.793833 0.934902
vt 0.729998 0.933324
vt 0.861986 0.512137
vt 0.861883 0.596755
vt 0.859710 0.682899
vt 0.864590 0.766852
vt 0.864183 0.851091
vt 0.862556 0.935493
vt 0.921156 0.511700
vt 0.921656 0.596314
vt 0.932102 0.681690
vt 0.931329 0.766359
vt 0.930923 0.850598
vt 0.926887 0.935017
vt 0.968293 0.510340
vt 0.969274 0.594941
vt 0.985464 0.680151
vt 1.000000 0.765459
vt 0.984092 0.849065
vt 1.000000 0.933986
vt 0.659802 0.425596
vt 0.658330 0.510142
vt 0.676226 0.340266
vt 0.691289 0.254873
vt 0.675893 0.171498
vt 0.681928 0.085843
vt 0.620292 0.041559
vt 0.294456 0.534508
vt 0.074604 0.533908
vt 0.892642 0.001726
vt 0.968060 0.006217
vt 0.806471 0.000000
vt 0.336079 0.557831
vt 0.303490 0.555080
vt 0.304039 0.501471
vt 0.336079 0.491425
vt 0.692669 0.004798
vt 0.755252 0.001726
vt 0.792883 0.977324
vt 0.727733 0.975714
vt 0.863023 0.977928
vt 0.928679 0.977442
vt 0.991916 0.976157
vt 0.679292 0.044106
vt 0.575691 0.000733
vt 0.107587 0.357704
vt 0.151038 0.385901
vt 0.603922 0.001466
vt 0.641241 0.554483
vt 0.683823 0.615368
vt 0.669345 0.626692
vt 0.633727 0.575764
vt 0.074885 0.129726
vt 0.107587 0.082978
vt 0.151038 0.054783
vt 0.199371 0.048947
vt 0.246059 0.066259
vt 0.284795 0.104381
vt 0.310348 0.158164
vt 0.319267 0.220345
vt 0.310348 0.282525
vt 0.284795 0.336307
vt 0.246059 0.374428
vt 0.199371 0.391738
vt 0.074885 0.310955
vt 0.057350 0.251969
vt 0.057350 0.188711
vt 0.352157 0.211312
vt 0.144751 0.007195
vt 0.204340 0.000000
vt 0.261900 0.021344
vt 0.117966 0.024576
vt 0.533756 0.912069
vt 0.482905 0.893204
vt 0.440714 0.851672
vt 0.412882 0.793083
vt 0.403167 0.725350
vt 0.412882 0.657620
vt 0.440714 0.599040
vt 0.482905 0.557523
vt 0.533756 0.538675
vt 0.586400 0.545042
vt 0.688444 0.690947
vt 0.688444 0.759852
vt 0.669345 0.824100
vt 0.633727 0.875015
vt 0.586400 0.905721
vt 0.641241 0.912247
vt 0.584660 0.948956
vt 0.377213 0.814294
vt 0.365599 0.733317
vt 0.521722 0.510142
vt 0.584660 0.517754
vt 0.706656 0.774566
vt 0.683823 0.851377
vt 0.460928 0.933992
vt 0.410487 0.884339
vt 0.410487 0.582310
vt 0.460928 0.532675
vt 0.706656 0.692187
vt 0.521722 0.956546
vt 0.377213 0.652344
vn 0.093400 0.955400 0.280100
vn 0.558500 0.773200 0.300400
vn 0.766500 0.578800 0.278300
vn 0.918100 0.261200 0.298000
vn 0.945800 -0.087600 0.312800
vn 0.847800 -0.422100 0.321100
vn 0.719000 -0.564600 0.405400
vn 0.270200 -0.895700 0.353200
vn 0.026900 -0.947700 0.318000
vn -0.426000 -0.842300 0.330200
vn -0.650500 -0.713500 0.260300
vn -0.869300 -0.432900 0.238500
vn -0.971400 -0.090000 0.219900
vn -0.941000 0.267700 0.207200
vn -0.781500 0.590200 0.202100
vn -0.515200 0.832000 0.205600
vn -0.526400 0.850200 -0.008400
vn -0.523800 0.846000 -0.099400
vn -0.526400 0.850200 0.003300
vn -0.526400 0.850200 -0.000000
vn -0.526100 0.849700 0.033300
vn -0.183700 0.982900 -0.008400
vn -0.182800 0.978100 -0.099400
vn -0.258900 0.965600 -0.023300
vn -0.259000 0.965500 0.026800
vn -0.183600 0.982400 0.033300
vn -0.798000 0.602600 -0.008400
vn -0.794100 0.599600 -0.099400
vn -0.798000 0.602600 0.003300
vn -0.713200 0.699500 -0.044600
vn -0.714100 0.696000 0.075400
vn -0.924300 0.379200 -0.042800
vn -0.925700 0.372600 -0.064700
vn -0.961800 0.273700 0.003300
vn -0.995800 0.047600 -0.078700
vn -0.992800 0.053300 0.107100
vn -0.976900 -0.209200 -0.044700
vn -0.977400 -0.202000 -0.062700
vn -0.995700 -0.092300 0.003300
vn -0.995700 -0.092300 0.000000
vn -0.995200 -0.092200 0.033300
vn -0.895100 -0.445700 -0.008400
vn -0.962600 -0.206500 -0.175500
vn -0.962800 -0.260800 0.071000
vn -0.895200 -0.445700 0.000000
vn -0.894700 -0.445500 0.033300
vn -0.740900 -0.670600 -0.037800
vn -0.614400 -0.779500 -0.122300
vn -0.569700 -0.820400 0.048900
vn -0.756900 -0.652100 -0.041700
vn -0.756800 -0.649400 0.074300
vn -0.483100 -0.867100 -0.121300
vn -0.473500 -0.880800 0.005100
vn -0.361200 -0.932500 0.003300
vn -0.442600 -0.886500 -0.134900
vn -0.599200 -0.797900 0.065100
vn 0.319400 -0.941600 -0.106300
vn 0.285600 -0.958300 -0.002000
vn 0.000000 -1.000000 0.003300
vn 0.280200 -0.955000 -0.097300
vn 0.246200 -0.961800 0.119700
vn 0.361200 -0.932400 -0.008400
vn 0.359500 -0.927900 -0.099400
vn 0.361200 -0.932500 0.003300
vn 0.361200 -0.932500 0.000000
vn 0.234600 -0.972000 -0.011800
vn 0.673700 -0.739000 -0.008400
vn 0.617800 -0.777000 -0.120900
vn 0.624700 -0.780400 0.025500
vn 0.673700 -0.739000 0.000000
vn 0.886200 -0.455000 -0.087000
vn 0.895100 -0.445700 -0.008400
vn 0.927600 -0.349700 -0.131500
vn 0.876600 -0.481100 -0.010500
vn 0.827400 -0.559700 0.045900
vn 0.894700 -0.445500 0.033300
vn 0.995700 -0.092300 -0.008400
vn 0.990800 -0.091800 -0.099400
vn 0.999600 -0.010900 -0.024800
vn 0.999500 -0.014100 0.027100
vn 0.995200 -0.092200 0.033300
vn 0.961800 0.273700 -0.008400
vn 0.980400 0.135200 -0.143400
vn 0.988400 0.143800 0.049000
vn 0.961800 0.273700 -0.000000
vn 0.961300 0.273500 0.033300
vn 0.798000 0.602600 -0.008400
vn 0.725200 0.675800 -0.132100
vn 0.734400 0.677700 0.037300
vn 0.798000 0.602600 0.000000
vn 0.797600 0.602300 0.033300
vn 0.526400 0.850200 -0.008400
vn 0.523800 0.846000 -0.099400
vn 0.633300 0.772700 -0.042200
vn 0.633400 0.772500 0.045800
vn 0.629700 0.776800 -0.009800
vn 0.183700 0.982900 -0.008400
vn 0.182800 0.978100 -0.099400
vn 0.129300 0.989100 -0.070200
vn 0.129200 0.988900 0.073900
vn 0.021300 0.999500 -0.022300
vn -0.526100 0.849600 -0.036700
vn -0.183600 0.982300 -0.036700
vn -0.797500 0.602200 -0.036700
vn -0.961200 0.273500 -0.036700
vn -0.995100 -0.092200 -0.036700
vn -0.894600 -0.445400 -0.036700
vn -0.673200 -0.738500 -0.036700
vn -0.683300 -0.728400 0.050000
vn 0.075500 -0.997000 -0.019700
vn 0.191200 -0.981600 0.003400
vn 0.965300 -0.244000 0.092700
vn 0.894600 -0.445400 -0.036700
vn 0.995100 -0.092200 -0.036700
vn 0.961200 0.273500 -0.036700
vn 0.797500 0.602200 -0.036700
vn 0.672500 0.740000 0.004800
vn -0.063400 0.997800 0.019600
vn -0.179400 0.959500 0.217100
vn 0.213900 -0.106500 0.971000
vn -0.259000 -0.284100 -0.923100
vn -0.000000 0.000000 1.000000
vn -0.121200 -0.132900 0.983700
vn -0.079900 0.129100 0.988400
vn 0.207200 0.059000 0.976500
vn 0.000000 -0.213500 0.976900
vn -0.145600 0.041400 0.988500
vn 0.095600 0.154400 0.983400
vn 0.160600 -0.176200 0.971200
vn -0.149100 -0.074200 0.986000
vn -0.029000 0.155200 0.987400
vn 0.229400 -0.021300 0.973100
vn -0.070800 -0.182800 0.980600
vn -0.119500 0.090200 0.988700
vn 0.158000 0.119400 0.980200
vn 0.082700 -0.213500 0.973400
vn 0.030900 0.165000 0.985800
vn -0.156400 -0.014500 0.987600
vn -0.000000 0.000000 -1.000000
vn -0.121800 0.196700 -0.972900
vn 0.170900 0.048600 -0.984100
vn 0.000000 -0.315800 -0.948800
vn -0.298900 0.085000 -0.950500
vn 0.093200 0.150500 -0.984200
vn 0.158300 -0.173600 -0.972000
vn -0.342600 -0.170600 -0.923900
vn -0.037600 0.201200 -0.978800
vn 0.187700 -0.017400 -0.982100
vn -0.129400 -0.333900 -0.933700
vn -0.213400 0.161100 -0.963600
vn 0.138800 0.104800 -0.984700
vn 0.098200 -0.253600 -0.962300
vn 0.034400 0.183800 -0.982400
vn -0.352300 -0.032600 -0.935300
vn 0.185500 -0.092400 -0.978300
usemtl Wood
s off
f 154/1/1 2/2/1 4/3/1 155/4/1
f 155/4/2 4/3/2 6/5/2 156/6/2
f 156/6/3 6/5/3 8/7/3 157/8/3
f 157/8/4 8/7/4 10/9/4 158/10/4
f 158/10/5 10/9/5 12/11/5 159/12/5
f 159/12/6 12/11/6 14/13/6 160/14/6
f 160/14/7 14/13/7 16/15/7 161/16/7
f 161/16/8 16/15/8 18/17/8 162/18/8
f 162/18/9 18/17/9 20/19/9 163/20/9
f 163/20/10 20/19/10 22/21/10 164/22/10
f 164/23/11 22/24/11 24/25/11 165/26/11
f 165/26/12 24/25/12 26/27/12 166/28/12
f 166/29/13 26/30/13 28/31/13 167/32/13
f 167/33/14 28/34/14 30/35/14 168/36/14
f 168/36/15 30/35/15 32/37/15 169/38/15
f 169/38/16 32/37/16 34/39/16 170/40/16
f 31/41/17 114/42/17 119/43/17 33/44/17
f 114/42/18 113/45/18 118/46/18 119/43/18
f 113/45/19 112/47/19 117/48/19 118/46/19
f 112/47/20 111/49/20 116/50/20 117/48/20
f 111/49/21 110/51/21 115/52/21 116/50/21
f 33/44/22 119/43/22 35/53/22 1/54/22
f 119/43/23 118/46/23 36/55/23 35/53/23
f 118/46/24 117/48/24 37/56/24 36/55/24
f 117/48/25 116/50/25 38/57/25 37/56/25
f 116/50/26 115/52/26 39/58/26 38/57/26
f 29/59/27 109/60/27 114/42/27 31/41/27
f 109/60/28 108/61/28 113/45/28 114/42/28
f 108/61/29 107/62/29 112/47/29 113/45/29
f 107/62/30 106/63/30 111/49/30 112/47/30
f 106/63/31 105/64/31 110/51/31 111/49/31
f 27/65/32 104/66/32 109/60/32 29/59/32
f 104/66/33 103/67/33 108/61/33 109/60/33
f 103/67/34 102/68/34 107/62/34 108/61/34
f 102/68/35 101/69/35 106/63/35 107/62/35
f 101/69/36 100/70/36 105/64/36 106/63/36
f 25/71/37 99/72/37 104/73/37 27/74/37
f 99/72/38 98/75/38 103/76/38 104/73/38
f 98/75/39 97/77/39 102/78/39 103/76/39
f 97/77/40 96/79/40 101/80/40 102/78/40
f 96/79/41 95/81/41 100/82/41 101/80/41
f 23/83/42 94/84/42 99/72/42 25/71/42
f 94/84/43 93/85/43 98/75/43 99/72/43
f 93/85/44 92/86/44 97/77/44 98/75/44
f 92/86/45 91/87/45 96/79/45 97/77/45
f 91/87/46 90/88/46 95/81/46 96/79/46
f 21/89/47 89/90/47 94/84/47 23/83/47
f 89/90/48 88/91/48 93/85/48 94/84/48
f 88/91/49 87/92/49 92/86/49 93/85/49
f 87/92/50 86/93/50 91/87/50 92/86/50
f 86/93/51 85/94/51 90/88/51 91/87/51
f 19/95/52 84/96/52 89/90/52 21/89/52
f 84/96/53 83/97/53 88/91/53 89/90/53
f 83/97/54 82/98/54 87/92/54 88/91/54
f 82/98/55 81/99/55 86/93/55 87/92/55
f 81/99/56 80/100/56 85/94/56 86/93/56
f 17/101/57 79/102/57 84/103/57 19/104/57
f 79/102/58 78/105/58 83/106/58 84/103/58
f 78/107/59 77/108/59 82/98/59 83/97/59
f 77/109/60 76/110/60 81/111/60 82/112/60
f 76/110/61 75/113/61 80/114/61 81/111/61
f 15/115/62 74/116/62 79/102/62 17/101/62
f 74/116/63 73/117/63 78/105/63 79/102/63
f 73/117/64 72/118/64 77/109/64 78/105/64
f 72/118/65 71/119/65 76/110/65 77/109/65
f 71/119/66 70/120/66 75/113/66 76/110/66
f 13/121/67 69/122/67 74/116/67 15/115/67
f 69/122/68 68/123/68 73/117/68 74/116/68
f 68/123/69 67/124/69 72/118/69 73/117/69
f 67/124/70 66/125/70 71/119/70 72/118/70
f 66/125/71 65/126/71 70/120/71 71/119/71
f 11/127/72 64/128/72 69/122/72 13/121/72
f 64/128/73 63/129/73 68/123/73 69/122/73
f 63/129/74 62/130/74 67/124/74 68/123/74
f 62/130/75 61/131/75 66/125/75 67/124/75
f 61/131/76 60/132/76 65/126/76 66/125/76
f 9/133/77 59/134/77 64/135/77 11/136/77
f 59/134/78 58/137/78 63/138/78 64/135/78
f 58/137/79 57/139/79 62/140/79 63/138/79
f 57/139/80 56/141/80 61/142/80 62/140/80
f 56/141/81 55/143/81 60/144/81 61/142/81
f 7/145/82 54/146/82 59/134/82 9/133/82
f 54/146/83 53/147/83 58/137/83 59/134/83
f 53/147/84 52/148/84 57/139/84 58/137/84
f 52/148/85 51/149/85 56/141/85 57/139/85
f 51/149/86 50/150/86 55/143/86 56/141/86
f 5/151/87 49/152/87 54/146/87 7/145/87
f 49/152/88 48/153/88 53/147/88 54/146/88
f 48/153/89 47/154/89 52/148/89 53/147/89
f 47/154/90 46/155/90 51/149/90 52/148/90
f 46/155/91 45/156/91 50/150/91 51/149/91
f 3/157/92 44/158/92 49/152/92 5/151/92
f 44/158/93 43/159/93 48/153/93 49/152/93
f 43/159/94 42/160/94 47/154/94 48/153/94
f 42/160/95 41/161/95 46/155/95 47/154/95
f 41/161/96 40/162/96 45/156/96 46/155/96
f 1/54/97 35/53/97 44/163/97 3/164/97
f 35/53/98 36/55/98 43/165/98 44/163/98
f 36/55/99 37/56/99 42/166/99 43/165/99
f 37/56/100 38/57/100 41/167/100 42/166/100
f 38/57/101 39/58/101 40/168/101 41/167/101
f 110/51/102 169/38/102 170/40/102 115/52/102
f 115/52/103 170/40/103 154/169/103 39/58/103
f 105/64/104 168/36/104 169/38/104 110/51/104
f 100/70/105 167/33/105 168/36/105 105/64/105
f 95/81/106 166/28/106 167/170/106 100/82/106
f 90/88/107 165/26/107 166/28/107 95/81/107
f 85/94/108 164/23/108 165/26/108 90/88/108
f 80/100/109 163/171/109 164/23/109 85/94/109
f 75/113/110 162/172/110 163/173/110 80/114/110
f 70/120/111 161/174/111 162/172/111 75/113/111
f 65/175/112 160/176/112 161/177/112 70/178/112
f 60/132/113 159/179/113 160/180/113 65/126/113
f 55/143/114 158/181/114 159/182/114 60/144/114
f 50/150/115 157/183/115 158/181/115 55/143/115
f 45/156/116 156/184/116 157/183/116 50/150/116
f 40/162/117 155/185/117 156/184/117 45/156/117
f 39/58/118 154/169/118 155/186/118 40/168/118
f 154/169/119 170/40/119 171/187/119
usemtl WoodCut
f 14/13/120 12/11/120 125/188/120 126/189/120
f 2/190/119 154/169/119 171/187/119
f 21/191/121 23/192/121 148/193/121 147/194/121
f 120/195/122 121/196/122 136/197/122 135/198/122 134/199/122 133/200/122 132/201/122 131/202/122 130/203/122 129/204/122 128/205/122 127/206/122 126/189/122 125/188/122 124/207/122 123/208/122 122/209/122
f 24/210/123 22/21/123 130/203/123 131/202/123
f 34/211/124 32/212/124 135/198/124 136/197/124
f 10/9/125 8/7/125 123/208/125 124/207/125
f 20/19/126 18/17/126 128/205/126 129/204/126
f 30/213/127 28/31/127 133/200/127 134/199/127
f 6/5/128 4/3/128 120/195/128 122/209/128
f 16/15/129 14/13/129 126/189/129 127/206/129
f 26/30/130 24/210/130 131/202/130 132/201/130
f 2/2/131 171/214/131 34/211/131 136/197/131 121/196/131
f 12/11/132 10/9/132 124/207/132 125/188/132
f 22/21/133 20/19/133 129/204/133 130/203/133
f 32/212/134 30/213/134 134/199/134 135/198/134
f 8/7/135 6/5/135 122/209/135 123/208/135
f 18/17/136 16/15/136 127/206/136 128/205/136
f 4/3/137 2/2/137 121/196/137 120/195/137
f 28/31/138 26/30/138 132/201/138 133/200/138
f 137/215/139 138/216/139 139/217/139 140/218/139 141/219/139 142/220/139 143/221/139 144/222/139 145/223/139 146/224/139 147/194/139 148/193/139 149/225/139 150/226/139 151/227/139 152/228/139 153/229/139
f 31/230/140 33/231/140 153/229/140 152/228/140
f 7/232/141 9/233/141 141/219/141 140/218/141
f 17/234/142 19/235/142 146/224/142 145/223/142
f 27/236/143 29/237/143 151/227/143 150/226/143
f 3/238/144 5/239/144 139/217/144 138/216/144
f 13/240/145 15/241/145 144/222/145 143/221/145
f 23/192/146 25/242/146 149/225/146 148/193/146
f 33/231/147 1/243/147 137/215/147 153/229/147
f 9/233/148 11/244/148 142/220/148 141/219/148
f 19/235/149 21/191/149 147/194/149 146/224/149
f 29/237/150 31/230/150 152/228/150 151/227/150
f 5/239/151 7/232/151 140/218/151 139/217/151
f 15/241/152 17/234/152 145/223/152 144/222/152
f 1/243/153 3/238/153 138/216/153 137/215/153
f 25/242/154 27/236/154 150/226/154 149/225/154
f 11/244/155 13/240/155 143/221/155 142/220/155
f 171/187/119 170/40/119 34/39/119
